# xmcd
#
# Track frame offsets: 
#        150
#        12395
#        26994
#        44212
#        56925
#        70712
#        86315
#        97029
#        112282
#        124347
#        142855
#
# Disc length: 2117 seconds
#
# Revision: 0
# Processed by: cddbd v1.5.2PL0 Copyright (c) Steve Scherf et al.
# Submitted via: ExactAudioCopy v1.0b1
#
DISCID=a508430b
DTITLE=THE LUNDSTROMS - TEMPORARY HOME
DYEAR=1995
DGENRE=Gospel
TTITLE0=WHEN I GET CARRIED AWAY
TTITLE1=IT'S NOT WHAT'S OVER THE DOOR
TTITLE2=FAILURE ISN'T FINAL
TTITLE3=TEMPORARY HOME
TTITLE4=OLD RUGGED CROSS
TTITLE5=WE'RE ON  A JOURNEY 
TTITLE6=HEALER IN THE HOUSE
TTITLE7=GOD WILL MAKE THIS TRIAL A BLESSING
TTITLE8=HE'S STILL IN THE FIRE
TTITLE9=TEARS ARE A LANGUAGE
TTITLE10=WHEN HE WAS ON THE CROSS
EXTD=
EXTT0=
EXTT1=
EXTT2=
EXTT3=
EXTT4=
EXTT5=
EXTT6=
EXTT7=
EXTT8=
EXTT9=
EXTT10=
PLAYORDER=
